<?xml version="1.0" encoding="UTF-8" standalone="no"?>
<!-- Generator: Adobe Illustrator 16.0.0, SVG Export Plug-In . SVG Version: 6.00 Build 0)  -->

<svg
   xmlns:dc="http://purl.org/dc/elements/1.1/"
   xmlns:cc="http://creativecommons.org/ns#"
   xmlns:rdf="http://www.w3.org/1999/02/22-rdf-syntax-ns#"
   xmlns:svg="http://www.w3.org/2000/svg"
   xmlns="http://www.w3.org/2000/svg"
   xmlns:sodipodi="http://sodipodi.sourceforge.net/DTD/sodipodi-0.dtd"
   xmlns:inkscape="http://www.inkscape.org/namespaces/inkscape"
   version="1.1"
   id="Layer_1"
   x="0px"
   y="0px"
   width="864px"
   height="864px"
   viewBox="0 0 864 864"
   enable-background="new 0 0 864 864"
   xml:space="preserve"
   inkscape:version="0.91 r13725"
   sodipodi:docname="icon.svg"
   inkscape:export-filename="C:\Users\Kangxu Liu\Desktop\apple-touch-icon-precomposed.png"
   inkscape:export-xdpi="18.75"
   inkscape:export-ydpi="18.75"><metadata
     id="metadata27"><rdf:RDF><cc:Work
         rdf:about=""><dc:format>image/svg+xml</dc:format><dc:type
           rdf:resource="http://purl.org/dc/dcmitype/StillImage" /></cc:Work></rdf:RDF></metadata><defs
     id="defs25" /><sodipodi:namedview
     pagecolor="#ffffff"
     bordercolor="#666666"
     borderopacity="1"
     objecttolerance="10"
     gridtolerance="10"
     guidetolerance="10"
     inkscape:pageopacity="0"
     inkscape:pageshadow="2"
     inkscape:window-width="1366"
     inkscape:window-height="705"
     id="namedview23"
     showgrid="false"
     inkscape:zoom="0.19314491"
     inkscape:cx="66.035398"
     inkscape:cy="557.86476"
     inkscape:window-x="-8"
     inkscape:window-y="-8"
     inkscape:window-maximized="1"
     inkscape:current-layer="Layer_1" /><path
     id="path3358"
     d="m 673.35358,274.8628 c -30.71681,0 -34.8426,33.00636 -34.8426,39.88191 0,6.87556 -9.16511,-53.63418 -64.63669,-39.88191 0,0 -42.17032,12.83874 -42.17032,48.1335 l -10.08898,-5.96318 c 0,0 -60.51089,-55.92259 -174.19345,13.75226 -113.68371,69.67485 -80.67735,171.44139 -78.85147,177.86709 1.83855,6.4142 -16.50318,55.00906 -76.10055,30.25545 -59.58701,-24.75477 -74.25165,8.25158 -87.09154,22.91737 -12.839902,14.66464 44.00771,-27.50453 91.6787,6.41305 47.67214,33.91872 82.51475,-8.25159 84.35214,-15.58966 1.83739,-7.33807 72.88828,64.17417 112.77019,72.88827 39.88192,8.7141 72.42577,7.33807 72.42577,-11.91487 0,-19.25294 43.54519,11.00135 40.34327,-16.50318 -3.20192,-27.50453 -77.47543,-22.91623 -32.09284,-35.29361 45.3826,-12.37738 53.63419,68.93736 124.68392,68.84992 71.05088,-0.0874 59.59852,-14.76473 56.84761,-21.17893 -2.75092,-6.41304 54.5477,12.8399 54.5477,-8.71295 0,-21.54249 -72.88943,-11.46386 -72.88943,-52.2593 0,-40.79543 21.5425,-45.38259 30.25545,-44.46907 8.7141,0.91352 106.807,15.12715 106.807,-17.87806 0,-33.00521 -46.75862,-99.9303 -66.01157,-119.18324 15.60347,-24.2819 22.01767,-92.13086 -35.74231,-92.13086 z m -90.30383,87.1019 c -16.71142,0 -30.25544,-12.92734 -30.25544,-28.88056 0,-15.95208 13.54287,-28.88057 30.25544,-28.88057 16.71258,0 30.25545,12.92734 30.25545,28.88057 0,15.94287 -13.55438,28.88056 -30.25545,28.88056 z m 92.36097,53.17282 c -7.72349,0 -13.98352,-6.26002 -13.98352,-13.98352 0,-7.7235 6.26003,-13.98352 13.98352,-13.98352 7.7235,0 13.98352,6.26002 13.98352,13.98352 0,7.7235 -6.26002,13.98352 -13.98352,13.98352 z"
     inkscape:connector-curvature="0" /><g
     id="g3360"
     transform="matrix(1.1505284,0,0,1.1505284,103.53713,115.96217)" /><g
     id="g3362"
     transform="matrix(1.1505284,0,0,1.1505284,103.53713,115.96217)" /><g
     id="g3364"
     transform="matrix(1.1505284,0,0,1.1505284,103.53713,115.96217)" /><g
     id="g3366"
     transform="matrix(1.1505284,0,0,1.1505284,103.53713,115.96217)" /><g
     id="g3368"
     transform="matrix(1.1505284,0,0,1.1505284,103.53713,115.96217)" /><g
     id="g3370"
     transform="matrix(1.1505284,0,0,1.1505284,103.53713,115.96217)" /><g
     id="g3372"
     transform="matrix(1.1505284,0,0,1.1505284,103.53713,115.96217)" /><g
     id="g3374"
     transform="matrix(1.1505284,0,0,1.1505284,103.53713,115.96217)" /><g
     id="g3376"
     transform="matrix(1.1505284,0,0,1.1505284,103.53713,115.96217)" /><g
     id="g3378"
     transform="matrix(1.1505284,0,0,1.1505284,103.53713,115.96217)" /><g
     id="g3380"
     transform="matrix(1.1505284,0,0,1.1505284,103.53713,115.96217)" /><g
     id="g3382"
     transform="matrix(1.1505284,0,0,1.1505284,103.53713,115.96217)" /><g
     id="g3384"
     transform="matrix(1.1505284,0,0,1.1505284,103.53713,115.96217)" /><g
     id="g3386"
     transform="matrix(1.1505284,0,0,1.1505284,103.53713,115.96217)" /><g
     id="g3388"
     transform="matrix(1.1505284,0,0,1.1505284,103.53713,115.96217)" /></svg>